<svg xmlns="http://www.w3.org/2000/svg"
    xmlns:xlink="http://www.w3.org/1999/xlink" contentScriptType="text/ecmascript" width="810" zoomAndPan="magnify" contentStyleType="text/css" viewBox="0 0 810 809.999993" height="809.999993" preserveAspectRatio="xMidYMid meet" version="1.0">
    <defs>
        <clipPath id="clip-0">
            <path d="M 276 205 L 623.765625 205 L 623.765625 376 L 276 376 Z M 276 205 " clip-rule="nonzero"/>
        </clipPath>
        <clipPath id="clip-1">
            <path d="M 186.515625 422 L 519 422 L 519 616 L 186.515625 616 Z M 186.515625 422 " clip-rule="nonzero"/>
        </clipPath>
    </defs>
    <rect x="-81" width="972" fill="rgb(100%, 100%, 100%)" y="-80.999999" height="971.999992" fill-opacity="1"/>
    <rect x="-81" width="972" fill="rgb(100%, 100%, 100%)" y="-80.999999" height="971.999992" fill-opacity="1"/>
    <rect x="-81" width="972" fill="rgb(0%, 25.878906%, 39.99939%)" y="-80.999999" height="971.999992" fill-opacity="1"/>
    <path stroke-linecap="round" transform="matrix(2.058616, 0, 0, 2.058811, -32.933916, -27.076942)" fill-opacity="1" fill="rgb(96.078491%, 96.078491%, 96.078491%)" fill-rule="nonzero" stroke-linejoin="round" d="M 295.991299 212.599333 C 295.991299 213.965412 295.959041 215.329594 295.890731 216.691879 C 295.824318 218.054164 295.72375 219.416448 295.590924 220.773041 C 295.4562 222.131531 295.289219 223.486227 295.08998 224.83523 C 294.888844 226.186131 294.65545 227.53134 294.389798 228.868959 C 294.124146 230.206579 293.824339 231.538506 293.492275 232.862844 C 293.162107 234.187182 292.797785 235.502034 292.401205 236.807399 C 292.004624 238.112763 291.577684 239.408642 291.116588 240.693136 C 290.65739 241.979527 290.165934 243.252637 289.644118 244.512466 C 289.122302 245.774192 288.568228 247.02074 287.985692 248.254006 C 287.401258 249.489169 286.788361 250.707257 286.145104 251.910166 C 285.501848 253.114972 284.830128 254.300805 284.128048 255.471459 C 283.425968 256.642113 282.695426 257.795691 281.938318 258.930296 C 281.179313 260.064901 280.393743 261.180533 279.581607 262.277191 C 278.767574 263.371952 277.928874 264.447739 277.063608 265.502656 C 276.196444 266.557573 275.306511 267.591619 274.390012 268.602898 C 273.473513 269.614176 272.532347 270.602686 271.566513 271.566531 C 270.602576 272.532273 269.613972 273.47335 268.602598 274.389762 C 267.591223 275.306174 266.558976 276.19792 265.503959 277.063103 C 264.448942 277.928287 263.373052 278.768805 262.276289 279.580864 C 261.179527 280.394819 260.065687 281.180315 258.930974 281.937351 C 257.794364 282.696284 256.642574 283.426757 255.471808 284.126873 C 254.301043 284.828886 253.115097 285.502439 251.910176 286.145634 C 250.707153 286.78883 249.48895 287.401669 248.255567 287.986047 C 247.020286 288.568528 245.77362 289.122549 244.511774 289.644316 C 243.251825 290.166082 241.978594 290.657491 240.693978 291.116646 C 239.409361 291.577698 238.11336 292.004597 236.807871 292.40114 C 235.500485 292.797682 234.185508 293.16197 232.862942 293.492106 C 231.538478 293.824139 230.208321 294.123918 228.868677 294.389544 C 227.53093 294.655171 226.185594 294.888543 224.836462 295.08966 C 223.485433 295.28888 222.132506 295.455845 220.773887 295.590556 C 219.415268 295.723369 218.054751 295.823928 216.692337 295.892232 C 215.328025 295.958638 213.965611 295.99279 212.599401 295.99279 C 211.235089 295.99279 209.870778 295.958638 208.508363 295.892232 C 207.145949 295.823928 205.783535 295.723369 204.426813 295.590556 C 203.068194 295.455845 201.71337 295.28888 200.364238 295.08966 C 199.013209 294.888543 197.66977 294.655171 196.330126 294.389544 C 194.992379 294.123918 193.660325 293.824139 192.337758 293.492106 C 191.013294 293.16197 189.698318 292.797682 188.392829 292.40114 C 187.08734 292.004597 185.791339 291.577698 184.506723 291.116646 C 183.220209 290.657491 181.948875 290.166082 180.687029 289.644316 C 179.42708 289.122549 178.178517 288.568528 176.945134 287.986047 C 175.71175 287.401669 174.493547 286.78883 173.288626 286.145634 C 172.085603 285.502439 170.89776 284.828886 169.726994 284.126873 C 168.558126 283.426757 167.404439 282.696284 166.269726 281.937351 C 165.135013 281.180315 164.019276 280.394819 162.922513 279.580864 C 161.827648 278.768805 160.751758 277.928287 159.696741 277.063103 C 158.641724 276.19792 157.609477 275.306174 156.598103 274.389762 C 155.586728 273.47335 154.598124 272.532273 153.63229 271.566531 C 152.668353 270.602686 151.727187 269.614176 150.810688 268.602898 C 149.894189 267.591619 149.002358 266.557573 148.137092 265.502656 C 147.271827 264.447739 146.431228 263.371952 145.619093 262.277191 C 144.80506 261.180533 144.019489 260.064901 143.262382 258.930296 C 142.503377 257.795691 141.774732 256.642113 141.072652 255.471459 C 140.370572 254.300805 139.698852 253.114972 139.055596 251.910166 C 138.412339 250.707257 137.797545 249.489169 137.215008 248.254006 C 136.630574 247.02074 136.078398 245.774192 135.556582 244.512466 C 135.032868 243.252637 134.54331 241.979527 134.082214 240.693136 C 133.623016 239.408642 133.194178 238.112763 132.799495 236.807399 C 132.402915 235.502034 132.038593 234.187182 131.706528 232.862844 C 131.376361 231.538506 131.076554 230.206579 130.810902 228.868959 C 130.543353 227.53134 130.309959 226.186131 130.11072 224.83523 C 129.909583 223.486227 129.742602 222.131531 129.609776 220.773041 C 129.475053 219.416448 129.374485 218.054164 129.308072 216.691879 C 129.241659 215.329594 129.207504 213.965412 129.207504 212.599333 C 129.207504 211.23515 129.241659 209.870968 129.308072 208.508684 C 129.374485 207.144502 129.475053 205.784114 129.609776 204.425624 C 129.742602 203.067134 129.909583 201.714336 130.11072 200.363435 C 130.309959 199.014432 130.543353 197.669223 130.810902 196.331603 C 131.076554 194.992086 131.376361 193.662056 131.706528 192.337718 C 132.038593 191.01338 132.402915 189.698529 132.799495 188.393164 C 133.194178 187.085902 133.623016 185.791921 134.082214 184.505529 C 134.54331 183.221035 135.032868 181.947925 135.556582 180.688096 C 136.078398 179.42637 136.630574 178.179823 137.215008 176.944659 C 137.797545 175.711393 138.412339 174.493306 139.055596 173.288499 C 139.698852 172.085591 140.370572 170.89786 141.072652 169.727206 C 141.774732 168.556552 142.503377 167.404871 143.262382 166.270266 C 144.019489 165.135661 144.80506 164.02003 145.619093 162.923372 C 146.431228 161.826713 147.271827 160.750926 148.137092 159.696009 C 149.002358 158.641092 149.894189 157.608943 150.810688 156.597665 C 151.727187 155.586387 152.668353 154.597876 153.63229 153.632134 C 154.598124 152.668289 155.586728 151.727212 156.598103 150.810801 C 157.609477 149.894389 158.641724 149.002643 159.696741 148.137459 C 160.751758 147.270378 161.827648 146.431757 162.922513 145.619699 C 164.019276 144.805743 165.135013 144.020247 166.269726 143.261314 C 167.404439 142.504279 168.558126 141.773806 169.728892 141.071793 C 170.89776 140.36978 172.085603 139.698124 173.288626 139.054928 C 174.493547 138.411732 175.71175 137.798894 176.945134 137.214516 C 178.178517 136.630137 179.42708 136.078013 180.687029 135.556247 C 181.948875 135.03448 183.220209 134.543071 184.506723 134.08202 C 185.791339 133.622865 187.08734 133.194068 188.392829 132.799423 C 189.698318 132.40288 191.013294 132.038592 192.337758 131.706559 C 193.660325 131.376423 194.992379 131.076645 196.330126 130.811018 C 197.66977 130.543494 199.013209 130.310122 200.364238 130.110902 C 201.71337 129.909785 203.068194 129.74282 204.426813 129.610007 C 205.783535 129.475296 207.145949 129.374737 208.508363 129.308331 C 209.870778 129.241924 211.235089 129.207772 212.599401 129.207772 C 213.965611 129.207772 215.328025 129.241924 216.692337 129.308331 C 218.054751 129.374737 219.415268 129.475296 220.773887 129.610007 C 222.132506 129.74282 223.485433 129.909785 224.836462 130.110902 C 226.185594 130.310122 227.53093 130.543494 228.868677 130.811018 C 230.208321 131.076645 231.538478 131.376423 232.862942 131.706559 C 234.187406 132.038592 235.500485 132.40288 236.807871 132.799423 C 238.11336 133.194068 239.409361 133.622865 240.693978 134.08202 C 241.978594 134.543071 243.251825 135.03448 244.511774 135.556247 C 245.77362 136.078013 247.020286 136.630137 248.255567 137.214516 C 249.48895 137.798894 250.707153 138.411732 251.910176 139.054928 C 253.115097 139.698124 254.301043 140.36978 255.471808 141.071793 C 256.642574 141.773806 257.794364 142.504279 258.930974 143.261314 C 260.065687 144.020247 261.179527 144.805743 262.276289 145.619699 C 263.373052 146.431757 264.448942 147.272275 265.503959 148.137459 C 266.558976 149.002643 267.591223 149.894389 268.602598 150.810801 C 269.613972 151.727212 270.602576 152.668289 271.566513 153.632134 C 272.532347 154.597876 273.473513 155.586387 274.390012 156.597665 C 275.306511 157.608943 276.196444 158.641092 277.063608 159.696009 C 277.928874 160.750926 278.767574 161.826713 279.581607 162.923372 C 280.393743 164.02003 281.179313 165.135661 281.938318 166.270266 C 282.695426 167.404871 283.425968 168.556552 284.128048 169.727206 C 284.830128 170.89786 285.501848 172.085591 286.145104 173.288499 C 286.788361 174.493306 287.401258 175.711393 287.985692 176.944659 C 288.568228 178.179823 289.122302 179.42637 289.644118 180.688096 C 290.165934 181.947925 290.65739 183.221035 291.116588 184.505529 C 291.577684 185.791921 292.004624 187.085902 292.401205 188.393164 C 292.797785 189.698529 293.162107 191.01338 293.492275 192.337718 C 293.824339 193.662056 294.124146 194.992086 294.389798 196.331603 C 294.65545 197.669223 294.888844 199.014432 295.08998 200.363435 C 295.289219 201.714336 295.4562 203.067134 295.590924 204.425624 C 295.72375 205.784114 295.824318 207.144502 295.890731 208.508684 C 295.959041 209.870968 295.991299 211.23515 295.991299 212.599333 Z M 295.991299 212.599333 " stroke="rgb(9.01947%, 7.839966%, 16.859436%)" stroke-width="3" stroke-opacity="1" stroke-miterlimit="10"/>
    <path stroke-linecap="round" transform="matrix(2.058616, 0, 0, 2.058811, -32.933916, -27.076942)" fill="none" stroke-linejoin="round" d="M 212.599401 161.95004 L 212.599401 204.298503 " stroke="rgb(9.01947%, 7.839966%, 16.859436%)" stroke-width="3" stroke-opacity="1" stroke-miterlimit="10"/>
    <path stroke-linecap="round" transform="matrix(2.058616, 0, 0, 2.058811, -32.933916, -27.076942)" fill="none" stroke-linejoin="round" d="M 205.7342 172.290502 L 212.599401 161.95004 L 219.508246 172.290502 " stroke="rgb(9.01947%, 7.839966%, 16.859436%)" stroke-width="3" stroke-opacity="1" stroke-miterlimit="10"/>
    <path stroke-linecap="round" transform="matrix(2.058616, 0, 0, 2.058811, -32.933916, -27.076942)" fill="none" stroke-linejoin="round" d="M 177.85594 213.591638 L 210.610808 213.591638 " stroke="rgb(9.01947%, 7.839966%, 16.859436%)" stroke-width="3" stroke-opacity="1" stroke-miterlimit="10"/>
    <path stroke-linecap="round" transform="matrix(2.058616, 0, 0, 2.058811, -32.933916, -27.076942)" fill="none" stroke-linejoin="round" d="M 185.853957 220.458084 L 177.85594 213.591638 L 185.853957 206.68345 " stroke="rgb(9.01947%, 7.839966%, 16.859436%)" stroke-width="3" stroke-opacity="1" stroke-miterlimit="10"/>
    <path stroke-linecap="round" transform="matrix(2.058616, 0, 0, 2.058811, -32.933916, -27.076942)" fill="none" stroke-linejoin="round" d="M 164.61889 164.619587 L 174.151995 174.153683 " stroke="rgb(9.01947%, 7.839966%, 16.859436%)" stroke-width="3" stroke-opacity="1" stroke-miterlimit="10"/>
    <path stroke-linecap="round" transform="matrix(2.058616, 0, 0, 2.058811, -32.933916, -27.076942)" fill="none" stroke-linejoin="round" d="M 251.046808 251.048777 L 260.58181 260.582873 " stroke="rgb(9.01947%, 7.839966%, 16.859436%)" stroke-width="3" stroke-opacity="1" stroke-miterlimit="10"/>
    <path stroke-linecap="round" transform="matrix(2.058616, 0, 0, 2.058811, -32.933916, -27.076942)" fill="none" stroke-linejoin="round" d="M 144.742442 212.599333 L 158.228066 212.599333 " stroke="rgb(9.01947%, 7.839966%, 16.859436%)" stroke-width="3" stroke-opacity="1" stroke-miterlimit="10"/>
    <path stroke-linecap="round" transform="matrix(2.058616, 0, 0, 2.058811, -32.933916, -27.076942)" fill="none" stroke-linejoin="round" d="M 266.972634 212.599333 L 280.458258 212.599333 " stroke="rgb(9.01947%, 7.839966%, 16.859436%)" stroke-width="3" stroke-opacity="1" stroke-miterlimit="10"/>
    <path stroke-linecap="round" transform="matrix(2.058616, 0, 0, 2.058811, -32.933916, -27.076942)" fill="none" stroke-linejoin="round" d="M 164.61889 260.582873 L 174.151995 251.046879 " stroke="rgb(9.01947%, 7.839966%, 16.859436%)" stroke-width="3" stroke-opacity="1" stroke-miterlimit="10"/>
    <path stroke-linecap="round" transform="matrix(2.058616, 0, 0, 2.058811, -32.933916, -27.076942)" fill="none" stroke-linejoin="round" d="M 251.046808 174.153683 L 260.58181 164.61769 " stroke="rgb(9.01947%, 7.839966%, 16.859436%)" stroke-width="3" stroke-opacity="1" stroke-miterlimit="10"/>
    <path stroke-linecap="round" transform="matrix(2.058616, 0, 0, 2.058811, -32.933916, -27.076942)" fill="none" stroke-linejoin="round" d="M 212.599401 280.457431 L 212.599401 266.973089 " stroke="rgb(9.01947%, 7.839966%, 16.859436%)" stroke-width="3" stroke-opacity="1" stroke-miterlimit="10"/>
    <path stroke-linecap="round" transform="matrix(2.058616, 0, 0, 2.058811, -32.933916, -27.076942)" fill="none" stroke-linejoin="round" d="M 212.599401 158.227474 L 212.599401 144.743131 " stroke="rgb(9.01947%, 7.839966%, 16.859436%)" stroke-width="3" stroke-opacity="1" stroke-miterlimit="10"/>
    <path stroke-linecap="round" transform="matrix(2.058616, 0, 0, 2.058811, -32.933916, -27.076942)" fill-opacity="1" fill="rgb(9.799194%, 86.268616%, 31.369019%)" fill-rule="nonzero" stroke-linejoin="round" d="M 220.90102 212.599333 C 220.90102 212.872548 220.887738 213.143867 220.861173 213.413288 C 220.834607 213.684607 220.79476 213.952131 220.741629 214.219655 C 220.688499 214.485281 220.622086 214.74901 220.544288 215.008945 C 220.464592 215.26888 220.373512 215.525019 220.269149 215.777365 C 220.164785 216.027813 220.049037 216.272568 219.920006 216.51353 C 219.792873 216.752594 219.652457 216.985965 219.502553 217.211748 C 219.350752 217.437531 219.189464 217.655724 219.01679 217.866328 C 218.844116 218.076932 218.661955 218.278049 218.470306 218.46968 C 218.27676 218.66131 218.075624 218.843454 217.866897 219.016111 C 217.656273 219.188769 217.438059 219.350042 217.212255 219.501828 C 216.986451 219.653615 216.753057 219.79212 216.51397 219.921139 C 216.272986 220.04826 216.028207 220.165895 215.775838 220.268351 C 215.525366 220.372704 215.269202 220.463776 215.009243 220.543464 C 214.749283 220.623152 214.485529 220.687661 214.219877 220.740787 C 213.952328 220.793912 213.684779 220.833756 213.413434 220.860319 C 213.143987 220.886881 212.872643 220.900163 212.599401 220.900163 C 212.328057 220.900163 212.056713 220.886881 211.787266 220.860319 C 211.515921 220.833756 211.246475 220.793912 210.980823 220.740787 C 210.713273 220.687661 210.451417 220.623152 210.18956 220.543464 C 209.929601 220.463776 209.675334 220.372704 209.422965 220.268351 C 209.172493 220.165895 208.925816 220.04826 208.68673 219.921139 C 208.447643 219.79212 208.214249 219.653615 207.988445 219.501828 C 207.762641 219.350042 207.544427 219.188769 207.333803 219.016111 C 207.123179 218.843454 206.922043 218.66131 206.730394 218.46968 C 206.538745 218.278049 206.356584 218.076932 206.18391 217.866328 C 206.011236 217.655724 205.84805 217.437531 205.698147 217.211748 C 205.546346 216.985965 205.407827 216.752594 205.278796 216.51353 C 205.151663 216.272568 205.034017 216.027813 204.931552 215.777365 C 204.827188 215.525019 204.736108 215.26888 204.656412 215.008945 C 204.576717 214.74901 204.512201 214.485281 204.459071 214.219655 C 204.405941 213.952131 204.366093 213.684607 204.339528 213.413288 C 204.312962 213.143867 204.29968 212.872548 204.29968 212.599333 C 204.29968 212.328014 204.312962 212.056695 204.339528 211.787274 C 204.366093 211.515956 204.405941 211.246534 204.459071 210.980908 C 204.512201 210.713384 204.576717 210.449655 204.656412 210.18972 C 204.736108 209.929786 204.827188 209.673646 204.931552 209.423198 C 205.034017 209.17275 205.151663 208.926097 205.278796 208.687033 C 205.407827 208.447969 205.546346 208.214597 205.698147 207.988814 C 205.84805 207.763032 206.011236 207.544839 206.18391 207.334235 C 206.356584 207.123631 206.538745 206.922514 206.730394 206.730883 C 206.922043 206.537355 207.123179 206.355211 207.333803 206.182554 C 207.544427 206.009897 207.762641 205.848623 207.988445 205.698734 C 208.214249 205.546948 208.447643 205.406545 208.68673 205.279424 C 208.925816 205.150405 209.172493 205.034668 209.422965 204.930314 C 209.675334 204.825961 209.929601 204.734889 210.18956 204.657099 C 210.451417 204.577411 210.713273 204.511004 210.980823 204.457879 C 211.246475 204.404753 211.515921 204.364909 211.787266 204.338347 C 212.056713 204.311784 212.328057 204.298503 212.599401 204.298503 C 212.872643 204.298503 213.143987 204.311784 213.413434 204.338347 C 213.684779 204.364909 213.952328 204.404753 214.219877 204.457879 C 214.485529 204.511004 214.749283 204.577411 215.009243 204.657099 C 215.269202 204.734889 215.525366 204.825961 215.775838 204.930314 C 216.028207 205.034668 216.272986 205.150405 216.51397 205.279424 C 216.753057 205.406545 216.986451 205.546948 217.212255 205.698734 C 217.438059 205.848623 217.656273 206.009897 217.866897 206.182554 C 218.075624 206.355211 218.27676 206.537355 218.470306 206.730883 C 218.661955 206.922514 218.844116 207.123631 219.01679 207.334235 C 219.189464 207.544839 219.350752 207.763032 219.502553 207.988814 C 219.652457 208.214597 219.792873 208.447969 219.920006 208.687033 C 220.049037 208.926097 220.164785 209.17275 220.269149 209.423198 C 220.373512 209.673646 220.464592 209.929786 220.544288 210.18972 C 220.622086 210.449655 220.688499 210.713384 220.741629 210.980908 C 220.79476 211.246534 220.834607 211.515956 220.861173 211.787274 C 220.887738 212.056695 220.90102 212.328014 220.90102 212.599333 Z M 220.90102 212.599333 " stroke="rgb(9.01947%, 7.839966%, 16.859436%)" stroke-width="3" stroke-opacity="1" stroke-miterlimit="10"/>
    <path stroke-linecap="round" transform="matrix(2.058616, 0, 0, 2.058811, -32.933916, -27.076942)" fill="none" stroke-linejoin="round" d="M 212.047225 206.651195 C 212.047225 206.651195 218.548104 206.928206 218.548104 213.570767 " stroke="rgb(100%, 100%, 100%)" stroke-width="3" stroke-opacity="1" stroke-miterlimit="10"/>
    <path fill="rgb(9.799194%, 86.268616%, 31.369019%)" d="M 537.5625 322.191406 C 527.992188 320.089844 518.53125 326.148438 516.429688 335.722656 C 515.519531 339.882812 516.144531 344.019531 517.933594 347.546875 C 520.257812 352.128906 524.546875 355.667969 529.960938 356.855469 L 598.398438 371.871094 C 603.992188 373.097656 609.839844 371.546875 614.089844 367.707031 C 618.339844 363.867188 620.480469 358.21875 619.832031 352.523438 L 611.105469 275.933594 C 609.996094 266.195312 601.203125 259.199219 591.464844 260.308594 C 581.730469 261.417969 574.734375 270.210938 575.847656 279.949219 L 576.511719 285.816406 C 504.726562 209.050781 388.054688 185.273438 289.746094 235.171875 C 281.007812 239.609375 277.519531 250.289062 281.953125 259.027344 C 286.386719 267.769531 297.070312 271.257812 305.808594 266.824219 C 397.09375 220.488281 506.890625 248.601562 565.769531 328.375 Z M 537.5625 322.191406 " fill-opacity="1" fill-rule="nonzero"/>
    <g clip-path="url(#clip-0)">
        <path stroke-linecap="round" transform="matrix(2.058616, 0, 0, 2.058811, -32.933916, -27.076942)" fill="none" stroke-linejoin="round" d="M 277.126226 169.645621 C 272.477319 168.624856 267.881543 171.567619 266.860681 176.217981 C 266.41856 178.23864 266.722162 180.247915 267.591223 181.961207 C 268.720243 184.186778 270.803713 185.905761 273.433665 186.48255 L 306.678092 193.775896 C 309.39533 194.371659 312.235907 193.618418 314.300401 191.75334 C 316.364895 189.888262 317.404732 187.144719 317.089745 184.378408 L 312.850701 147.177409 C 312.311808 142.447359 308.040506 139.049236 303.310006 139.588079 C 298.581404 140.126921 295.182959 144.397817 295.72375 149.127867 L 296.046327 151.97766 C 261.175732 114.691281 204.500816 103.142218 156.746109 127.378744 C 152.501372 129.534113 150.806893 134.721421 152.96057 138.965753 C 155.114247 143.211984 160.303945 144.906302 164.548682 142.752829 C 208.891661 120.246671 262.226954 133.901773 290.828166 172.649098 Z M 277.126226 169.645621 " stroke="rgb(9.01947%, 7.839966%, 16.859436%)" stroke-width="3" stroke-opacity="1" stroke-miterlimit="10"/>
    </g>
    <path fill="rgb(9.799194%, 86.268616%, 31.369019%)" d="M 514.785156 574.011719 C 511.34375 564.84375 501.136719 560.171875 491.953125 563.597656 C 440.191406 582.929688 383.996094 580.945312 333.726562 558.003906 C 294.023438 539.886719 261.808594 510.386719 240.484375 473.289062 L 267.859375 482.617188 C 277.140625 485.773438 287.21875 480.8125 290.378906 471.535156 C 293.535156 462.257812 288.578125 452.175781 279.300781 449.015625 L 212.972656 426.425781 C 207.550781 424.582031 201.570312 425.464844 196.914062 428.800781 C 192.261719 432.140625 189.5 437.519531 189.511719 443.246094 L 189.601562 520.339844 C 189.601562 523.214844 190.289062 525.933594 191.511719 528.335938 C 194.441406 534.113281 200.445312 538.070312 207.363281 538.0625 C 217.164062 538.050781 225.097656 530.097656 225.085938 520.296875 L 225.078125 514.554688 C 249.164062 547.019531 281.199219 573.046875 318.992188 590.292969 C 377.886719 617.167969 443.722656 619.492188 504.367188 596.847656 C 513.550781 593.417969 518.214844 583.195312 514.785156 574.011719 Z M 514.785156 574.011719 " fill-opacity="1" fill-rule="nonzero"/>
    <g clip-path="url(#clip-1)">
        <path stroke-linecap="round" transform="matrix(2.058616, 0, 0, 2.058811, -32.933916, -27.076942)" fill="none" stroke-linejoin="round" d="M 266.061828 291.959061 C 264.390119 287.506022 259.431918 285.236812 254.970865 286.900773 C 229.826921 296.290672 202.5293 295.326827 178.110206 284.183793 C 158.823885 275.383964 143.175096 261.055309 132.816573 243.036341 L 146.114344 247.567172 C 150.622834 249.100216 155.518418 246.690604 157.053506 242.184439 C 158.586696 237.678274 156.178752 232.781259 151.672159 231.246317 L 119.45239 220.274043 C 116.818642 219.378502 113.913549 219.807299 111.651714 221.427621 C 109.391776 223.04984 108.050234 225.662467 108.055927 228.443957 L 108.09957 265.889712 C 108.09957 267.286149 108.433532 268.606692 109.027454 269.773552 C 110.450588 272.579707 113.367066 274.501705 116.727561 274.49791 C 121.488421 274.492218 125.34227 270.629249 125.336577 265.868841 L 125.332782 263.079763 C 137.032847 278.848493 152.59435 291.49042 170.952788 299.867143 C 199.56159 312.920791 231.542273 314.049704 261.001161 303.050867 C 265.462214 301.385009 267.727844 296.41969 266.061828 291.959061 Z M 266.061828 291.959061 " stroke="rgb(9.01947%, 7.839966%, 16.859436%)" stroke-width="3" stroke-opacity="1" stroke-miterlimit="10"/>
    </g>
    <path stroke-linecap="round" transform="matrix(2.058616, 0, 0, 2.058811, -32.933916, -27.076942)" fill="none" stroke-linejoin="round" d="M 118.602304 225.649186 L 147.332547 236.731505 " stroke="rgb(100%, 100%, 100%)" stroke-width="3" stroke-opacity="1" stroke-miterlimit="10"/>
    <path stroke-linecap="round" transform="matrix(2.058616, 0, 0, 2.058811, -32.933916, -27.076942)" fill="none" stroke-linejoin="round" d="M 129.207504 246.582456 C 176.064688 323.746971 255.81336 292.964648 255.81336 292.964648 " stroke="rgb(100%, 100%, 100%)" stroke-width="3" stroke-opacity="1" stroke-miterlimit="10"/>
    <path stroke-linecap="round" transform="matrix(2.058616, 0, 0, 2.058811, -32.933916, -27.076942)" fill="none" stroke-linejoin="round" d="M 306.530086 187.309787 L 276.737235 179.513648 " stroke="rgb(100%, 100%, 100%)" stroke-width="3" stroke-opacity="1" stroke-miterlimit="10"/>
    <path stroke-linecap="round" transform="matrix(2.058616, 0, 0, 2.058811, -32.933916, -27.076942)" fill="none" stroke-linejoin="round" d="M 293.645973 167.695163 C 238.44163 96.266284 162.639784 135.787721 162.639784 135.787721 " stroke="rgb(100%, 100%, 100%)" stroke-width="3" stroke-opacity="1" stroke-miterlimit="10"/>
</svg>